# Made in Blockbench 5.1.4
mtllib archevoker.geo.mtl

o armorHead
v 0.303125 0.553125 0.303125
v 0.303125 0.553125 -0.303125
v 0.303125 -0.05312499999999998 0.303125
v 0.303125 -0.05312499999999998 -0.303125
v -0.303125 0.553125 -0.303125
v -0.303125 0.553125 0.303125
v -0.303125 -0.05312499999999998 -0.303125
v -0.303125 -0.05312499999999998 0.303125
vt 0.08333333333333333 0.9166666666666666
vt 0.16666666666666666 0.9166666666666666
vt 0.16666666666666666 0.8333333333333334
vt 0.08333333333333333 0.8333333333333334
vt 0 0.9166666666666666
vt 0.08333333333333333 0.9166666666666666
vt 0.08333333333333333 0.8333333333333334
vt 0 0.8333333333333334
vt 0.25 0.9166666666666666
vt 0.3333333333333333 0.9166666666666666
vt 0.3333333333333333 0.8333333333333334
vt 0.25 0.8333333333333334
vt 0.16666666666666666 0.9166666666666666
vt 0.25 0.9166666666666666
vt 0.25 0.8333333333333334
vt 0.16666666666666666 0.8333333333333334
vt 0.16666666666666666 0.9166666666666666
vt 0.08333333333333333 0.9166666666666666
vt 0.08333333333333333 0.9895833333333334
vt 0.16666666666666666 0.9895833333333334
vt 0.25 1
vt 0.16666666666666666 1
vt 0.16666666666666666 0.9166666666666666
vt 0.25 0.9166666666666666
vn 0 0 -1
vn 1 0 0
vn 0 0 1
vn -1 0 0
vn 0 1 0
vn 0 -1 0
usemtl none
f 4/4/1 7/3/1 5/2/1 2/1/1
f 3/8/2 4/7/2 2/6/2 1/5/2
f 8/12/3 3/11/3 1/10/3 6/9/3
f 7/16/4 8/15/4 6/14/4 5/13/4
f 6/20/5 1/19/5 2/18/5 5/17/5
f 7/24/6 4/23/6 3/22/6 8/21/6
o hat
v 0.5 0.5375000000000001 0.5
v 0.5 0.5375000000000001 -0.5
v 0.5 0.4750000000000001 0.5
v 0.5 0.4750000000000001 -0.5
v -0.5 0.5375000000000001 -0.5
v -0.5 0.5375000000000001 0.5
v -0.5 0.4750000000000001 -0.5
v -0.5 0.4750000000000001 0.5
vt 0.8333333333333334 0.84375
vt 1 0.84375
vt 1 0.8333333333333334
vt 0.8333333333333334 0.8333333333333334
vt 0.8333333333333334 0.84375
vt 1 0.84375
vt 1 0.8333333333333334
vt 0.8333333333333334 0.8333333333333334
vt 0.8333333333333334 0.84375
vt 1 0.84375
vt 1 0.8333333333333334
vt 0.8333333333333334 0.8333333333333334
vt 0.8333333333333334 0.84375
vt 1 0.84375
vt 1 0.8333333333333334
vt 0.8333333333333334 0.8333333333333334
vt 0.8333333333333334 1
vt 1 1
vt 1 0.8333333333333334
vt 0.8333333333333334 0.8333333333333334
vt 0.8333333333333334 1
vt 1 1
vt 1 0.8333333333333334
vt 0.8333333333333334 0.8333333333333334
vn 0 0 -1
vn 1 0 0
vn 0 0 1
vn -1 0 0
vn 0 1 0
vn 0 -1 0
usemtl none
f 12/28/7 15/27/7 13/26/7 10/25/7
f 11/32/8 12/31/8 10/30/8 9/29/8
f 16/36/9 11/35/9 9/34/9 14/33/9
f 15/40/10 16/39/10 14/38/10 13/37/10
f 14/44/11 9/43/11 10/42/11 13/41/11
f 15/48/12 12/47/12 11/46/12 16/45/12
o hat1
v 0.25 1.2218407592382405 0.28173855606651277
v 0.25 1.2761058147591564 -0.026013866749802245
v 0.25 0.48323494447908444 0.15150242281631499
v 0.25 0.5375000000000001 -0.15625
v -0.25 1.2761058147591564 -0.026013866749802245
v -0.25 1.2218407592382405 0.28173855606651277
v -0.25 0.5375000000000001 -0.15625
v -0.25 0.48323494447908444 0.15150242281631499
vt 0.8645833333333334 0.23958333333333337
vt 0.9479166666666666 0.23958333333333337
vt 0.9479166666666666 0.11458333333333337
vt 0.8645833333333334 0.11458333333333337
vt 0.8125 0.23958333333333337
vt 0.8645833333333334 0.23958333333333337
vt 0.8645833333333334 0.11458333333333337
vt 0.8125 0.11458333333333337
vt 0.7291666666666666 0.23958333333333337
vt 0.8125 0.23958333333333337
vt 0.8125 0.11458333333333337
vt 0.7291666666666666 0.11458333333333337
vt 0.9479166666666666 0.23958333333333337
vt 1 0.23958333333333337
vt 1 0.11458333333333337
vt 0.9479166666666666 0.11458333333333337
vt 0.8645833333333334 0.29166666666666663
vt 0.9479166666666666 0.29166666666666663
vt 0.9479166666666666 0.23958333333333337
vt 0.8645833333333334 0.23958333333333337
vt 0.8645833333333334 0.29166666666666663
vt 0.9479166666666666 0.29166666666666663
vt 0.9479166666666666 0.23958333333333337
vt 0.8645833333333334 0.23958333333333337
vn 0 0.17364817766693033 -0.984807753012208
vn 1 0 0
vn 0 -0.17364817766693033 0.984807753012208
vn -1 0 0
vn 0 0.984807753012208 0.17364817766693033
vn 0 -0.984807753012208 -0.17364817766693033
usemtl none
f 20/52/13 23/51/13 21/50/13 18/49/13
f 19/56/14 20/55/14 18/54/14 17/53/14
f 24/60/15 19/59/15 17/58/15 22/57/15
f 23/64/16 24/63/16 22/62/16 21/61/16
f 22/68/17 17/67/17 18/66/17 21/65/17
f 23/72/18 20/71/18 19/70/18 24/69/18
o hat2
v 0.2496875 0.8294585204314522 0.3604305421195587
v 0.2496875 1.0209696312111967 0.5211274445411935
v 0.2496875 1.0303296484584956 0.12104165364487796
v 0.2496875 1.22184075923824 0.28173855606651277
v -0.2496875 1.0209696312111967 0.5211274445411935
v -0.2496875 0.8294585204314522 0.3604305421195587
v -0.2496875 1.22184075923824 0.28173855606651277
v -0.2496875 1.0303296484584956 0.12104165364487796
vt 0.8645833333333334 0.29166666666666663
vt 0.9479166666666666 0.29166666666666663
vt 0.9479166666666666 0.23958333333333337
vt 0.8645833333333334 0.23958333333333337
vt 0.8333333333333334 0.07291666666666663
vt 0.875 0.07291666666666663
vt 0.875 0.02083333333333337
vt 0.8333333333333334 0.02083333333333337
vt 0.8645833333333334 0.29166666666666663
vt 0.9479166666666666 0.29166666666666663
vt 0.9479166666666666 0.23958333333333337
vt 0.8645833333333334 0.23958333333333337
vt 0.9583333333333334 0.07291666666666663
vt 1 0.07291666666666663
vt 1 0.02083333333333337
vt 0.9583333333333334 0.02083333333333337
vt 0.8645833333333334 0.29166666666666663
vt 0.9479166666666666 0.29166666666666663
vt 0.9479166666666666 0.23958333333333337
vt 0.8645833333333334 0.23958333333333337
vt 0.875 0.11458333333333337
vt 0.9583333333333334 0.11458333333333337
vt 0.9583333333333334 0.07291666666666663
vt 0.875 0.07291666666666663
vn 0 0.7660444431189782 0.6427876096865391
vn 1 0 0
vn 0 -0.7660444431189782 -0.6427876096865391
vn -1 0 0
vn 0 -0.6427876096865391 0.7660444431189782
vn 0 0.6427876096865391 -0.7660444431189782
usemtl none
f 28/76/19 31/75/19 29/74/19 26/73/19
f 27/80/20 28/79/20 26/78/20 25/77/20
f 32/84/21 27/83/21 25/82/21 30/81/21
f 31/88/22 32/87/22 30/86/22 29/85/22
f 30/92/23 25/91/23 26/90/23 29/89/23
f 31/96/24 28/95/24 27/94/24 32/93/24