# Made in Blockbench 5.1.4
mtllib cryomancer.geo.mtl

o armorHead
v 0.284375 0.534375 0.284375
v 0.284375 0.534375 -0.284375
v 0.284375 -0.03437499999999999 0.284375
v 0.284375 -0.03437499999999999 -0.284375
v -0.284375 0.534375 -0.284375
v -0.284375 0.534375 0.284375
v -0.284375 -0.03437499999999999 -0.284375
v -0.284375 -0.03437499999999999 0.284375
vt 0.4583333333333333 0.9166666666666666
vt 0.5416666666666666 0.9166666666666666
vt 0.5416666666666666 0.8333333333333334
vt 0.4583333333333333 0.8333333333333334
vt 0.4583333333333333 0.9895833333333334
vt 0.5416666666666666 0.9895833333333334
vt 0.5416666666666666 0.90625
vt 0.4583333333333333 0.90625
vn 0 0 -1
vn 0 -1 0
usemtl none
f 4/4/1 7/3/1 5/2/1 2/1/1
f 7/8/2 4/7/2 3/6/2 8/5/2
o armorHead
v 0.303125 0.553125 0.303125
v 0.303125 0.553125 -0.303125
v 0.303125 -0.05312499999999998 0.303125
v 0.303125 -0.05312499999999998 -0.303125
v -0.303125 0.553125 -0.303125
v -0.303125 0.553125 0.303125
v -0.303125 -0.05312499999999998 -0.303125
v -0.303125 -0.05312499999999998 0.303125
vt 0.08333333333333333 0.9166666666666666
vt 0.16666666666666666 0.9166666666666666
vt 0.16666666666666666 0.8333333333333334
vt 0.08333333333333333 0.8333333333333334
vt 0 0.9166666666666666
vt 0.08333333333333333 0.9166666666666666
vt 0.08333333333333333 0.8333333333333334
vt 0 0.8333333333333334
vt 0.25 0.9166666666666666
vt 0.3333333333333333 0.9166666666666666
vt 0.3333333333333333 0.8333333333333334
vt 0.25 0.8333333333333334
vt 0.16666666666666666 0.9166666666666666
vt 0.25 0.9166666666666666
vt 0.25 0.8333333333333334
vt 0.16666666666666666 0.8333333333333334
vt 0.16666666666666666 0.9166666666666666
vt 0.08333333333333333 0.9166666666666666
vt 0.08333333333333333 0.9895833333333334
vt 0.16666666666666666 0.9895833333333334
vn 0 0 -1
vn 1 0 0
vn 0 0 1
vn -1 0 0
vn 0 1 0
usemtl none
f 12/12/3 15/11/3 13/10/3 10/9/3
f 11/16/4 12/15/4 10/14/4 9/13/4
f 16/20/5 11/19/5 9/18/5 14/17/5
f 15/24/6 16/23/6 14/22/6 13/21/6
f 14/28/7 9/27/7 10/26/7 13/25/7
o hood
v 0.3025 0.47507853869123506 0.5180084145960235
v 0.3025 0.5537431716561388 0.30187911181526456
v 0.3025 0.258949235910476 0.43934378163111965
v 0.3025 0.3376138688753798 0.22321447885036078
v -0.3025 0.5537431716561388 0.30187911181526456
v -0.3025 0.47507853869123506 0.5180084145960235
v -0.3025 0.3376138688753798 0.22321447885036078
v -0.3025 0.258949235910476 0.43934378163111965
vt 0.2708333333333333 0.8958333333333334
vt 0.3541666666666667 0.8958333333333334
vt 0.3541666666666667 0.875
vt 0.2708333333333333 0.875
vt 0.25 0.875
vt 0.2708333333333333 0.875
vt 0.2708333333333333 0.8958333333333334
vt 0.25 0.8958333333333334
vt 0.375 0.8958333333333334
vt 0.4583333333333333 0.8958333333333334
vt 0.4583333333333333 0.875
vt 0.375 0.875
vt 0.375 0.875
vt 0.3541666666666667 0.875
vt 0.3541666666666667 0.8958333333333334
vt 0.375 0.8958333333333334
vt 0.3541666666666667 0.9166666666666666
vt 0.2708333333333333 0.9166666666666666
vt 0.2708333333333333 0.8958333333333334
vt 0.3541666666666667 0.8958333333333334
vt 0.4375 0.9166666666666666
vt 0.3541666666666667 0.9166666666666666
vt 0.3541666666666667 0.8958333333333334
vt 0.4375 0.8958333333333334
vn 0 0.34202014332566866 -0.9396926207859084
vn 1 0 0
vn 0 -0.34202014332566866 0.9396926207859084
vn -1 0 0
vn 0 0.9396926207859084 0.34202014332566866
vn 0 -0.9396926207859084 -0.34202014332566866
usemtl none
f 20/32/8 23/31/8 21/30/8 18/29/8
f 19/36/9 20/35/9 18/34/9 17/33/9
f 24/40/10 19/39/10 17/38/10 22/37/10
f 23/44/11 24/43/11 22/42/11 21/41/11
f 22/48/12 17/47/12 18/46/12 21/45/12
f 23/52/13 20/51/13 19/50/13 24/49/13