# Made in Blockbench 5.1.4
mtllib electromancer.geo.mtl

o armorHead
v 0.5 0.41848273882612275 0.49591845547718133
v 0.5 0.33132699607846455 -0.5002762426145643
v 0.5 0.3562205701953886 0.5013656893989099
v 0.5 0.2690648274477304 -0.4948290086928356
v -0.5 0.33132699607846455 -0.5002762426145643
v -0.5 0.41848273882612275 0.49591845547718133
v -0.5 0.2690648274477304 -0.4948290086928356
v -0.5 0.3562205701953886 0.5013656893989099
vt 0.8333333333333334 0.84375
vt 1 0.84375
vt 1 0.8333333333333334
vt 0.8333333333333334 0.8333333333333334
vt 0.8333333333333334 0.84375
vt 1 0.84375
vt 1 0.8333333333333334
vt 0.8333333333333334 0.8333333333333334
vt 0.8333333333333334 0.84375
vt 1 0.84375
vt 1 0.8333333333333334
vt 0.8333333333333334 0.8333333333333334
vt 0.8333333333333334 0.84375
vt 1 0.84375
vt 1 0.8333333333333334
vt 0.8333333333333334 0.8333333333333334
vt 0.8333333333333334 1
vt 1 1
vt 1 0.8333333333333334
vt 0.8333333333333334 0.8333333333333334
vt 0.8333333333333334 1
vt 1 1
vt 1 0.8333333333333334
vt 0.8333333333333334 0.8333333333333334
vn 0 -0.08715574274765818 -0.9961946980917455
vn 1 0 0
vn 0 0.08715574274765818 0.9961946980917455
vn -1 0 0
vn 0 0.9961946980917455 -0.08715574274765818
vn 0 -0.9961946980917455 0.08715574274765818
usemtl none
f 4/4/1 7/3/1 5/2/1 2/1/1
f 3/8/2 4/7/2 2/6/2 1/5/2
f 8/12/3 3/11/3 1/10/3 6/9/3
f 7/16/4 8/15/4 6/14/4 5/13/4
f 6/20/5 1/19/5 2/18/5 5/17/5
f 7/24/6 4/23/6 3/22/6 8/21/6
o armorHead
v 0.296875 0.625 0.296875
v 0.296875 0.625 -0.296875
v 0.296875 0.328125 0.296875
v 0.296875 0.328125 -0.296875
v -0.296875 0.625 -0.296875
v -0.296875 0.625 0.296875
v -0.296875 0.328125 -0.296875
v -0.296875 0.328125 0.296875
vt 0.3333333333333333 0.8854166666666666
vt 0.4166666666666667 0.8854166666666666
vt 0.4166666666666667 0.84375
vt 0.3333333333333333 0.84375
vt 0.4166666666666667 0.8854166666666666
vt 0.5 0.8854166666666666
vt 0.5 0.84375
vt 0.4166666666666667 0.84375
vt 0.5 0.8854166666666666
vt 0.5833333333333334 0.8854166666666666
vt 0.5833333333333334 0.84375
vt 0.5 0.84375
vt 0.5833333333333334 0.8854166666666666
vt 0.6666666666666666 0.8854166666666666
vt 0.6666666666666666 0.84375
vt 0.5833333333333334 0.84375
vt 0.34375 0.9895833333333334
vt 0.4270833333333333 0.9895833333333334
vt 0.4270833333333333 0.90625
vt 0.34375 0.90625
vt 0.34375 0.9895833333333334
vt 0.4270833333333333 0.9895833333333334
vt 0.4270833333333333 0.90625
vt 0.34375 0.90625
vn 0 0 -1
vn 1 0 0
vn 0 0 1
vn -1 0 0
vn 0 1 0
vn 0 -1 0
usemtl none
f 12/28/7 15/27/7 13/26/7 10/25/7
f 11/32/8 12/31/8 10/30/8 9/29/8
f 16/36/9 11/35/9 9/34/9 14/33/9
f 15/40/10 16/39/10 14/38/10 13/37/10
f 14/44/11 9/43/11 10/42/11 13/41/11
f 15/48/12 12/47/12 11/46/12 16/45/12
o armorHead
v 0.171875 1.0274882685017235 0.3131861476227707
v 0.171875 1.1308558870813172 -0.014654054196932331
v 0.171875 0.5208261384167279 0.15343619163612565
v 0.171875 0.6241937569963217 -0.1744040101835774
v -0.171875 1.1308558870813172 -0.014654054196932331
v -0.171875 1.0274882685017235 0.3131861476227707
v -0.171875 0.6241937569963217 -0.1744040101835774
v -0.171875 0.5208261384167279 0.15343619163612565
vt 0.5625 0.9166666666666666
vt 0.6145833333333334 0.9166666666666666
vt 0.6145833333333334 0.8333333333333334
vt 0.5625 0.8333333333333334
vt 0.5416666666666666 0.9166666666666666
vt 0.59375 0.9166666666666666
vt 0.59375 0.8333333333333334
vt 0.5416666666666666 0.8333333333333334
vt 0.65625 0.9166666666666666
vt 0.7083333333333334 0.9166666666666666
vt 0.7083333333333334 0.8333333333333334
vt 0.65625 0.8333333333333334
vt 0.625 0.9166666666666666
vt 0.6770833333333334 0.9166666666666666
vt 0.6770833333333334 0.8333333333333334
vt 0.625 0.8333333333333334
vt 0.34375 0.9791666666666666
vt 0.3854166666666667 0.9791666666666666
vt 0.3854166666666667 0.9375
vt 0.34375 0.9375
vt 0.34375 0.9791666666666666
vt 0.3854166666666667 0.9791666666666666
vt 0.3854166666666667 0.9375
vt 0.34375 0.9375
vn 0 0.30070579950427306 -0.9537169507482269
vn 1 0 0
vn 0 -0.30070579950427306 0.9537169507482269
vn -1 0 0
vn 0 0.9537169507482269 0.30070579950427306
vn 0 -0.9537169507482269 -0.30070579950427306
usemtl none
f 20/52/13 23/51/13 21/50/13 18/49/13
f 19/56/14 20/55/14 18/54/14 17/53/14
f 24/60/15 19/59/15 17/58/15 22/57/15
f 23/64/16 24/63/16 22/62/16 21/61/16
f 22/68/17 17/67/17 18/66/17 21/65/17
f 23/72/18 20/71/18 19/70/18 24/69/18