# Made in Blockbench 5.1.4
mtllib netherite_mage.geo.mtl

o armorHead
usemtl none
v 0.290625 0.5406249999999999 0.290625
v 0.290625 0.5406249999999999 -0.290625
v 0.290625 -0.04062499999999991 0.290625
v 0.290625 -0.04062499999999991 -0.290625
v -0.290625 0.5406249999999999 -0.290625
v -0.290625 0.5406249999999999 0.290625
v -0.290625 -0.04062499999999991 -0.290625
v -0.290625 -0.04062499999999991 0.290625
vt 0.08333333333333333 0.9166666666666666
vt 0.16666666666666666 0.9166666666666666
vt 0.16666666666666666 0.8333333333333334
vt 0.08333333333333333 0.8333333333333334
vt 0 0.9166666666666666
vt 0.08333333333333333 0.9166666666666666
vt 0.08333333333333333 0.8333333333333334
vt 0 0.8333333333333334
vt 0.25 0.9166666666666666
vt 0.3333333333333333 0.9166666666666666
vt 0.3333333333333333 0.8333333333333334
vt 0.25 0.8333333333333334
vt 0.16666666666666666 0.9166666666666666
vt 0.25 0.9166666666666666
vt 0.25 0.8333333333333334
vt 0.16666666666666666 0.8333333333333334
vt 0.08333333333333333 1
vt 0.16666666666666666 1
vt 0.16666666666666666 0.9166666666666666
vt 0.08333333333333333 0.9166666666666666
vt 0.16666666666666666 1
vt 0.25 1
vt 0.25 0.9166666666666666
vt 0.16666666666666666 0.9166666666666666
vn 0 0 -1
vn 1 0 0
vn 0 0 1
vn -1 0 0
vn 0 1 0
vn 0 -1 0
f 4/4/1 7/3/1 5/2/1 2/1/1
f 3/8/2 4/7/2 2/6/2 1/5/2
f 8/12/3 3/11/3 1/10/3 6/9/3
f 7/16/4 8/15/4 6/14/4 5/13/4
f 6/20/5 1/19/5 2/18/5 5/17/5
f 7/24/6 4/23/6 3/22/6 8/21/6

o hat
usemtl none
v 0.3125 0.5972881676528248 0.3222053109971277
v 0.3125 0.6517605068701116 -0.3004163753102132
v 0.3125 0.41050166176062275 0.3058636092319418
v 0.3125 0.4649740009779091 -0.3167580770753991
v -0.3125 0.6517605068701116 -0.3004163753102132
v -0.3125 0.5972881676528248 0.3222053109971277
v -0.3125 0.4649740009779091 -0.3167580770753991
v -0.3125 0.41050166176062275 0.3058636092319418
vt 0.53125 0.8854166666666666
vt 0.6354166666666666 0.8854166666666666
vt 0.6354166666666666 0.8541666666666666
vt 0.53125 0.8541666666666666
vt 0.53125 0.9479166666666666
vt 0.6354166666666666 0.9479166666666666
vt 0.6354166666666666 0.9166666666666666
vt 0.53125 0.9166666666666666
vt 0.53125 0.9166666666666666
vt 0.6354166666666666 0.9166666666666666
vt 0.6354166666666666 0.8854166666666666
vt 0.53125 0.8854166666666666
vt 0.53125 0.90625
vt 0.6354166666666666 0.90625
vt 0.6354166666666666 0.875
vt 0.53125 0.875
vt 0.6354166666666666 0.8645833333333334
vt 0.53125 0.8645833333333334
vt 0.53125 0.96875
vt 0.6354166666666666 0.96875
vn 0 0.08715574274765818 -0.9961946980917455
vn 1 0 0
vn 0 -0.08715574274765818 0.9961946980917455
vn -1 0 0
vn 0 0.9961946980917455 0.08715574274765818
f 12/28/7 15/27/7 13/26/7 10/25/7
f 11/32/8 12/31/8 10/30/8 9/29/8
f 16/36/9 11/35/9 9/34/9 14/33/9
f 15/40/10 16/39/10 14/38/10 13/37/10
f 14/44/11 9/43/11 10/42/11 13/41/11

o hat
usemtl none
v 0.5 0.39415995999543685 0.49265011512414414
v 0.5 0.481315702743095 -0.5035445829676014
v 0.5 0.33189779136470277 0.4872028812024155
v 0.5 0.4190535341123609 -0.50899181688933
v -0.5 0.481315702743095 -0.5035445829676014
v -0.5 0.39415995999543685 0.49265011512414414
v -0.5 0.4190535341123609 -0.50899181688933
v -0.5 0.33189779136470277 0.4872028812024155
vt 0.6666666666666666 1
vt 0.5 1
vt 0.5 0.9895833333333334
vt 0.6666666666666666 0.9895833333333334
vt 0.6666666666666666 1
vt 0.5 1
vt 0.5 0.9895833333333334
vt 0.6666666666666666 0.9895833333333334
vt 0.5 0.84375
vt 0.6666666666666666 0.84375
vt 0.6666666666666666 0.8333333333333334
vt 0.5 0.8333333333333334
vt 0.5 0.84375
vt 0.6666666666666666 0.84375
vt 0.6666666666666666 0.8333333333333334
vt 0.5 0.8333333333333334
vt 0.5 1
vt 0.6666666666666666 1
vt 0.6666666666666666 0.8333333333333334
vt 0.5 0.8333333333333334
vt 0.5 1
vt 0.6666666666666666 1
vt 0.6666666666666666 0.8333333333333334
vt 0.5 0.8333333333333334
vn 0 0.08715574274765818 -0.9961946980917455
vn 1 0 0
vn 0 -0.08715574274765818 0.9961946980917455
vn -1 0 0
vn 0 0.9961946980917455 0.08715574274765818
vn 0 -0.9961946980917455 -0.08715574274765818
f 20/48/12 23/47/12 21/46/12 18/45/12
f 19/52/13 20/51/13 18/50/13 17/49/13
f 24/56/14 19/55/14 17/54/14 22/53/14
f 23/60/15 24/59/15 22/58/15 21/57/15
f 22/64/16 17/63/16 18/62/16 21/61/16
f 23/68/17 20/67/17 19/66/17 24/65/17

o hat
usemtl none
v 0.203125 0.7607430760279401 0.2969400709024294
v 0.203125 0.8219272286310894 -0.16779970786654422
v 0.203125 0.5748471645203507 0.2724664098611697
v 0.203125 0.6360313171234999 -0.1922733689078039
v -0.203125 0.8219272286310894 -0.16779970786654422
v -0.203125 0.7607430760279401 0.2969400709024294
v -0.203125 0.6360313171234999 -0.1922733689078039
v -0.203125 0.5748471645203507 0.2724664098611697
vt 0.3854166666666667 0.9895833333333334
vt 0.4479166666666667 0.9895833333333334
vt 0.4479166666666667 0.9583333333333334
vt 0.3854166666666667 0.9583333333333334
vt 0.3333333333333333 0.9895833333333334
vt 0.3958333333333333 0.9895833333333334
vt 0.3958333333333333 0.9583333333333334
vt 0.3333333333333333 0.9583333333333334
vt 0.4375 0.9895833333333334
vt 0.5 0.9895833333333334
vt 0.5 0.9583333333333334
vt 0.4375 0.9583333333333334
vt 0.3333333333333333 0.9895833333333334
vt 0.3958333333333333 0.9895833333333334
vt 0.3958333333333333 0.9583333333333334
vt 0.3333333333333333 0.9583333333333334
vn 0 0.1305261922200516 -0.9914448613738104
vn 1 0 0
vn 0 -0.1305261922200516 0.9914448613738104
vn -1 0 0
f 28/72/18 31/71/18 29/70/18 26/69/18
f 27/76/19 28/75/19 26/74/19 25/73/19
f 32/80/20 27/79/20 25/78/20 30/77/20
f 31/84/21 32/83/21 30/82/21 29/81/21

