# Made in Blockbench 5.1.4
mtllib netherite_mage.geo.mtl

o dyeHat
usemtl none
v 0.3125 0.5972881676528251 0.3222053109971278
v 0.3125 0.6517605068701114 -0.30041637531021315
v 0.3125 0.41050166176062286 0.3058636092319418
v 0.3125 0.4649740009779092 -0.31675807707539916
v -0.3125 0.6517605068701114 -0.30041637531021315
v -0.3125 0.5972881676528251 0.3222053109971278
v -0.3125 0.4649740009779092 -0.31675807707539916
v -0.3125 0.41050166176062286 0.3058636092319418
vt 0.6979166666666666 0.8854166666666666
vt 0.8020833333333334 0.8854166666666666
vt 0.8020833333333334 0.8541666666666666
vt 0.6979166666666666 0.8541666666666666
vt 0.6979166666666666 0.9479166666666666
vt 0.8020833333333334 0.9479166666666666
vt 0.8020833333333334 0.9166666666666666
vt 0.6979166666666666 0.9166666666666666
vt 0.6979166666666666 0.9166666666666666
vt 0.8020833333333334 0.9166666666666666
vt 0.8020833333333334 0.8854166666666666
vt 0.6979166666666666 0.8854166666666666
vt 0.6979166666666666 0.90625
vt 0.8020833333333334 0.90625
vt 0.8020833333333334 0.875
vt 0.6979166666666666 0.875
vt 0.8020833333333334 0.8645833333333334
vt 0.6979166666666666 0.8645833333333334
vt 0.6979166666666666 0.96875
vt 0.8020833333333334 0.96875
vn 0 0.08715574274765818 -0.9961946980917455
vn 1 0 0
vn 0 -0.08715574274765818 0.9961946980917455
vn -1 0 0
vn 0 0.9961946980917455 0.08715574274765818
f 4/4/1 7/3/1 5/2/1 2/1/1
f 3/8/2 4/7/2 2/6/2 1/5/2
f 8/12/3 3/11/3 1/10/3 6/9/3
f 7/16/4 8/15/4 6/14/4 5/13/4
f 6/20/5 1/19/5 2/18/5 5/17/5

o dyeHat
usemtl none
v 0.5 0.39415995999543696 0.49265011512414414
v 0.5 0.4813157027430951 -0.5035445829676014
v 0.5 0.3318977913647029 0.4872028812024155
v 0.5 0.419053534112361 -0.50899181688933
v -0.5 0.4813157027430951 -0.5035445829676014
v -0.5 0.39415995999543696 0.49265011512414414
v -0.5 0.419053534112361 -0.50899181688933
v -0.5 0.3318977913647029 0.4872028812024155
vt 0.8333333333333334 1
vt 0.6666666666666666 1
vt 0.6666666666666666 0.9895833333333334
vt 0.8333333333333334 0.9895833333333334
vt 0.8333333333333334 1
vt 0.6666666666666666 1
vt 0.6666666666666666 0.9895833333333334
vt 0.8333333333333334 0.9895833333333334
vt 0.6666666666666666 0.84375
vt 0.8333333333333334 0.84375
vt 0.8333333333333334 0.8333333333333334
vt 0.6666666666666666 0.8333333333333334
vt 0.6666666666666666 0.84375
vt 0.8333333333333334 0.84375
vt 0.8333333333333334 0.8333333333333334
vt 0.6666666666666666 0.8333333333333334
vt 0.6666666666666666 1
vt 0.8333333333333334 1
vt 0.8333333333333334 0.8333333333333334
vt 0.6666666666666666 0.8333333333333334
vt 0.6666666666666666 1
vt 0.8333333333333334 1
vt 0.8333333333333334 0.8333333333333334
vt 0.6666666666666666 0.8333333333333334
vn 0 0.08715574274765818 -0.9961946980917455
vn 1 0 0
vn 0 -0.08715574274765818 0.9961946980917455
vn -1 0 0
vn 0 0.9961946980917455 0.08715574274765818
vn 0 -0.9961946980917455 -0.08715574274765818
f 12/24/6 15/23/6 13/22/6 10/21/6
f 11/28/7 12/27/7 10/26/7 9/25/7
f 16/32/8 11/31/8 9/30/8 14/29/8
f 15/36/9 16/35/9 14/34/9 13/33/9
f 14/40/10 9/39/10 10/38/10 13/37/10
f 15/44/11 12/43/11 11/42/11 16/41/11

o dyehat_1
usemtl none
v 0.1875 0.7239989777092911 0.30511748837041947
v 0.1875 0.9114989777092911 -0.019642038048745036
v 0.1875 0.39923945129012667 0.11761748837041947
v 0.1875 0.5867394512901267 -0.20714203804874504
v -0.1875 0.9114989777092911 -0.019642038048745036
v -0.1875 0.7239989777092911 0.30511748837041947
v -0.1875 0.5867394512901267 -0.20714203804874504
v -0.1875 0.39923945129012667 0.11761748837041947
vt 0.7291666666666666 0.9270833333333334
vt 0.7916666666666666 0.9270833333333334
vt 0.7916666666666666 0.8645833333333334
vt 0.7291666666666666 0.8645833333333334
vt 0.75 0.9375
vt 0.8125 0.9375
vt 0.8125 0.875
vt 0.75 0.875
vt 0.7083333333333334 0.96875
vt 0.7708333333333334 0.96875
vt 0.7708333333333334 0.90625
vt 0.7083333333333334 0.90625
vt 0.7291666666666666 0.9583333333333334
vt 0.7916666666666666 0.9583333333333334
vt 0.7916666666666666 0.8958333333333334
vt 0.7291666666666666 0.8958333333333334
vt 0.7291666666666666 0.9583333333333334
vt 0.7916666666666666 0.9583333333333334
vt 0.7916666666666666 0.8958333333333334
vt 0.7291666666666666 0.8958333333333334
vt 0.7291666666666666 0.9583333333333334
vt 0.7916666666666666 0.9583333333333334
vt 0.7916666666666666 0.8958333333333334
vt 0.7291666666666666 0.8958333333333334
vn 0 0.5 -0.8660254037844386
vn 1 0 0
vn 0 -0.5 0.8660254037844386
vn -1 0 0
vn 0 0.8660254037844386 0.5
vn 0 -0.8660254037844386 -0.5
f 20/48/12 23/47/12 21/46/12 18/45/12
f 19/52/13 20/51/13 18/50/13 17/49/13
f 24/56/14 19/55/14 17/54/14 22/53/14
f 23/60/15 24/59/15 22/58/15 21/57/15
f 22/64/16 17/63/16 18/62/16 21/61/16
f 23/68/17 20/67/17 19/66/17 24/65/17

o dyehat_2
usemtl none
v 0.09375 0.8584942144997089 0.4259307822386831
v 0.09375 1.0208739777092912 0.3321807822386831
v 0.09375 0.7022442144997089 0.15529784355604603
v 0.09375 0.8646239777092911 0.061547843556046034
v -0.09375 1.0208739777092912 0.3321807822386831
v -0.09375 0.8584942144997089 0.4259307822386831
v -0.09375 0.8646239777092911 0.061547843556046034
v -0.09375 0.7022442144997089 0.15529784355604603
vt 0.78125 0.9166666666666666
vt 0.8125 0.9166666666666666
vt 0.8125 0.8645833333333334
vt 0.78125 0.8645833333333334
vt 0.6979166666666666 0.9166666666666666
vt 0.7291666666666666 0.9166666666666666
vt 0.7291666666666666 0.8645833333333334
vt 0.6979166666666666 0.8645833333333334
vt 0.78125 0.9166666666666666
vt 0.8125 0.9166666666666666
vt 0.8125 0.8645833333333334
vt 0.78125 0.8645833333333334
vt 0.6979166666666666 0.9166666666666666
vt 0.7291666666666666 0.9166666666666666
vt 0.7291666666666666 0.8645833333333334
vt 0.6979166666666666 0.8645833333333334
vt 0.7083333333333334 0.9583333333333334
vt 0.7395833333333334 0.9583333333333334
vt 0.7395833333333334 0.9270833333333334
vt 0.7083333333333334 0.9270833333333334
vt 0.6979166666666666 0.9166666666666666
vt 0.7291666666666666 0.9166666666666666
vt 0.7291666666666666 0.8854166666666666
vt 0.6979166666666666 0.8854166666666666
vn 0 0.8660254037844386 -0.5
vn 1 0 0
vn 0 -0.8660254037844386 0.5
vn -1 0 0
vn 0 0.5 0.8660254037844386
vn 0 -0.5 -0.8660254037844386
f 28/72/18 31/71/18 29/70/18 26/69/18
f 27/76/19 28/75/19 26/74/19 25/73/19
f 32/80/20 27/79/20 25/78/20 30/77/20
f 31/84/21 32/83/21 30/82/21 29/81/21
f 30/88/22 25/87/22 26/86/22 29/85/22
f 31/92/23 28/91/23 27/90/23 32/89/23

