# Made in Blockbench 5.1.4
mtllib plagued.geo.mtl

o armorHead
v 0.3125 0.5625 0.3125
v 0.3125 0.5625 -0.3125
v 0.3125 -0.0625 0.3125
v 0.3125 -0.0625 -0.3125
v -0.3125 0.5625 -0.3125
v -0.3125 0.5625 0.3125
v -0.3125 -0.0625 -0.3125
v -0.3125 -0.0625 0.3125
vt 0.08333333333333333 0.9166666666666666
vt 0.16666666666666666 0.9166666666666666
vt 0.16666666666666666 0.8333333333333334
vt 0.08333333333333333 0.8333333333333334
vt 0 0.9166666666666666
vt 0.08333333333333333 0.9166666666666666
vt 0.08333333333333333 0.8333333333333334
vt 0 0.8333333333333334
vt 0.25 0.9166666666666666
vt 0.3333333333333333 0.9166666666666666
vt 0.3333333333333333 0.8333333333333334
vt 0.25 0.8333333333333334
vt 0.16666666666666666 0.9166666666666666
vt 0.25 0.9166666666666666
vt 0.25 0.8333333333333334
vt 0.16666666666666666 0.8333333333333334
vt 0.16666666666666666 0.9166666666666666
vt 0.08333333333333333 0.9166666666666666
vt 0.08333333333333333 0.9895833333333334
vt 0.16666666666666666 0.9895833333333334
vn 0 0 -1
vn 1 0 0
vn 0 0 1
vn -1 0 0
vn 0 1 0
usemtl none
f 4/4/1 7/3/1 5/2/1 2/1/1
f 3/8/2 4/7/2 2/6/2 1/5/2
f 8/12/3 3/11/3 1/10/3 6/9/3
f 7/16/4 8/15/4 6/14/4 5/13/4
f 6/20/5 1/19/5 2/18/5 5/17/5
o hood
v 0.311875 0.47640646637585393 0.5417706295193934
v 0.311875 0.561483977028114 0.3080220900988987
v 0.311875 0.24265792695535918 0.4566931188671334
v 0.311875 0.32773543760761925 0.2229445794466386
v -0.311875 0.561483977028114 0.3080220900988987
v -0.311875 0.47640646637585393 0.5417706295193934
v -0.311875 0.32773543760761925 0.2229445794466386
v -0.311875 0.24265792695535918 0.4566931188671334
vt 0.2708333333333333 0.8958333333333334
vt 0.3541666666666667 0.8958333333333334
vt 0.3541666666666667 0.875
vt 0.2708333333333333 0.875
vt 0.25 0.875
vt 0.2708333333333333 0.875
vt 0.2708333333333333 0.8958333333333334
vt 0.25 0.8958333333333334
vt 0.375 0.8958333333333334
vt 0.4583333333333333 0.8958333333333334
vt 0.4583333333333333 0.875
vt 0.375 0.875
vt 0.375 0.875
vt 0.3541666666666667 0.875
vt 0.3541666666666667 0.8958333333333334
vt 0.375 0.8958333333333334
vt 0.3541666666666667 0.9166666666666666
vt 0.2708333333333333 0.9166666666666666
vt 0.2708333333333333 0.8958333333333334
vt 0.3541666666666667 0.8958333333333334
vt 0.4375 0.9166666666666666
vt 0.3541666666666667 0.9166666666666666
vt 0.3541666666666667 0.8958333333333334
vt 0.4375 0.8958333333333334
vn 0 0.34202014332566866 -0.9396926207859084
vn 1 0 0
vn 0 -0.34202014332566866 0.9396926207859084
vn -1 0 0
vn 0 0.9396926207859084 0.34202014332566866
vn 0 -0.9396926207859084 -0.34202014332566866
usemtl none
f 12/24/6 15/23/6 13/22/6 10/21/6
f 11/28/7 12/27/7 10/26/7 9/25/7
f 16/32/8 11/31/8 9/30/8 14/29/8
f 15/36/9 16/35/9 14/34/9 13/33/9
f 14/40/10 9/39/10 10/38/10 13/37/10
f 15/44/11 12/43/11 11/42/11 16/41/11
o mask
v 0.25 0.5 0.21250000000000002
v 0.25 0.5 -0.2875
v 0.25 0 0.21250000000000002
v 0.25 0 -0.2875
v -0.25 0.5 -0.2875
v -0.25 0.5 0.21250000000000002
v -0.25 0 -0.2875
v -0.25 0 0.21250000000000002
vt 0.4583333333333333 0.9166666666666666
vt 0.5416666666666666 0.9166666666666666
vt 0.5416666666666666 0.8333333333333334
vt 0.4583333333333333 0.8333333333333334
vt 0.4583333333333333 0.9895833333333334
vt 0.5416666666666666 0.9895833333333334
vt 0.5416666666666666 0.90625
vt 0.4583333333333333 0.90625
vn 0 0 -1
vn 0 -1 0
usemtl none
f 20/48/12 23/47/12 21/46/12 18/45/12
f 23/52/13 20/51/13 19/50/13 24/49/13
o beak
v -2.7755575615628914e-17 0.27651146129488996 -0.2792434224142813
v -2.7755575615628914e-17 0.06142029766324769 -0.5864254390226531
v 0.13258252147247765 0.16790621779372075 -0.2031972122256615
v 0.13258252147247765 -0.047184945837921516 -0.5103792288340334
v -0.13258252147247768 -0.047184945837921516 -0.5103792288340334
v -0.13258252147247768 0.16790621779372075 -0.2031972122256615
v 0 -0.15579018933909072 -0.4343330186454137
v 0 0.05930097429255152 -0.12715100203704174
vt 0.6458333333333334 0.8541666666666666
vt 0.6770833333333334 0.8541666666666666
vt 0.6770833333333334 0.8229166666666666
vt 0.6458333333333334 0.8229166666666666
vt 0.6666666666666666 0.9270833333333334
vt 0.6041666666666666 0.9270833333333334
vt 0.6041666666666666 0.9583333333333334
vt 0.6666666666666666 0.9583333333333334
vt 0.6666666666666666 0.8333333333333334
vt 0.6354166666666666 0.8333333333333334
vt 0.6354166666666666 0.8958333333333334
vt 0.6666666666666666 0.8958333333333334
vn 2.775557561562892e-17 -0.5735764363510462 -0.8191520442889919
vn 0.7071067811865475 0.5792279653395692 -0.40557978767263886
vn -0.7071067811865477 0.5792279653395692 -0.4055797876726389
usemtl none
f 28/56/14 31/55/14 29/54/14 26/53/14
f 27/60/15 28/59/15 26/58/15 25/57/15
f 30/64/16 25/63/16 26/62/16 29/61/16