# Made in Blockbench 5.1.4
mtllib priest.geo.mtl

o armorHead
v 0.2825 0.5325 0.2825
v 0.2825 0.5325 -0.2825
v 0.2825 -0.03249999999999997 0.2825
v 0.2825 -0.03249999999999997 -0.2825
v -0.2825 0.5325 -0.2825
v -0.2825 0.5325 0.2825
v -0.2825 -0.03249999999999997 -0.2825
v -0.2825 -0.03249999999999997 0.2825
vt 0.08333333333333333 0.9166666666666666
vt 0.16666666666666666 0.9166666666666666
vt 0.16666666666666666 0.8333333333333334
vt 0.08333333333333333 0.8333333333333334
vt 0 0.9166666666666666
vt 0.08333333333333333 0.9166666666666666
vt 0.08333333333333333 0.8333333333333334
vt 0 0.8333333333333334
vt 0.25 0.9166666666666666
vt 0.3333333333333333 0.9166666666666666
vt 0.3333333333333333 0.8333333333333334
vt 0.25 0.8333333333333334
vt 0.16666666666666666 0.9166666666666666
vt 0.25 0.9166666666666666
vt 0.25 0.8333333333333334
vt 0.16666666666666666 0.8333333333333334
vt 0.16666666666666666 0.9166666666666666
vt 0.08333333333333333 0.9166666666666666
vt 0.08333333333333333 1
vt 0.16666666666666666 1
vn 0 0 -1
vn 1 0 0
vn 0 0 1
vn -1 0 0
vn 0 1 0
usemtl none
f 4/4/1 7/3/1 5/2/1 2/1/1
f 3/8/2 4/7/2 2/6/2 1/5/2
f 8/12/3 3/11/3 1/10/3 6/9/3
f 7/16/4 8/15/4 6/14/4 5/13/4
f 6/20/5 1/19/5 2/18/5 5/17/5
o armorHead
v 0.25 0.6875 0.25
v 0.25 0.6875 -0.25
v 0.25 0.6875 0.25
v 0.25 0.6875 -0.25
v -0.25 0.6875 -0.25
v -0.25 0.6875 0.25
v -0.25 0.6875 -0.25
v -0.25 0.6875 0.25
vt 0.08333333333333333 0.8333333333333334
vt 0.16666666666666666 0.8333333333333334
vt 0.16666666666666666 0.8333333333333334
vt 0.08333333333333333 0.8333333333333334
vt 0 0.8333333333333334
vt 0.08333333333333333 0.8333333333333334
vt 0.08333333333333333 0.8333333333333334
vt 0 0.8333333333333334
vt 0.25 0.8333333333333334
vt 0.3333333333333333 0.8333333333333334
vt 0.3333333333333333 0.8333333333333334
vt 0.25 0.8333333333333334
vt 0.16666666666666666 0.8333333333333334
vt 0.25 0.8333333333333334
vt 0.25 0.8333333333333334
vt 0.16666666666666666 0.8333333333333334
vt 0.46875 0.125
vt 0.3854166666666667 0.125
vt 0.3854166666666667 0.20833333333333337
vt 0.46875 0.20833333333333337
vn 0 0 -1
vn 1 0 0
vn 0 0 1
vn -1 0 0
vn 0 1 0
usemtl none
f 12/24/6 15/23/6 13/22/6 10/21/6
f 11/28/7 12/27/7 10/26/7 9/25/7
f 16/32/8 11/31/8 9/30/8 14/29/8
f 15/36/9 16/35/9 14/34/9 13/33/9
f 14/40/10 9/39/10 10/38/10 13/37/10
o altArmorHood
v 0.311875 0.43727123412263474 0.5281525850687444
v 0.311875 0.5616462341226347 0.31272876587736526
v 0.311875 0.2218474149312556 0.40377758506874445
v 0.311875 0.3462224149312556 0.18835376587736527
v -0.311875 0.5616462341226347 0.31272876587736526
v -0.311875 0.43727123412263474 0.5281525850687444
v -0.311875 0.3462224149312556 0.18835376587736527
v -0.311875 0.2218474149312556 0.40377758506874445
vt 0.7916666666666666 0.8958333333333334
vt 0.8125 0.8958333333333334
vt 0.8125 0.875
vt 0.7916666666666666 0.875
vt 0.8125 0.875
vt 0.8958333333333334 0.875
vt 0.8958333333333334 0.8958333333333334
vt 0.8125 0.8958333333333334
vt 0.8958333333333334 0.8958333333333334
vt 0.9166666666666666 0.8958333333333334
vt 0.9166666666666666 0.875
vt 0.8958333333333334 0.875
vt 0.8958333333333334 0.9166666666666666
vt 0.8125 0.9166666666666666
vt 0.8125 0.8958333333333334
vt 0.8958333333333334 0.8958333333333334
vt 0.8958333333333334 0.8958333333333334
vt 0.8125 0.8958333333333334
vt 0.8125 0.9166666666666666
vt 0.8958333333333334 0.9166666666666666
vn 1 0 0
vn 0 -0.49999999999999994 0.8660254037844387
vn -1 0 0
vn 0 0.8660254037844387 0.49999999999999994
vn 0 -0.8660254037844387 -0.49999999999999994
usemtl none
f 19/44/11 20/43/11 18/42/11 17/41/11
f 24/48/12 19/47/12 17/46/12 22/45/12
f 23/52/13 24/51/13 22/50/13 21/49/13
f 22/56/14 17/55/14 18/54/14 21/53/14
f 23/60/15 20/59/15 19/58/15 24/57/15
o altArmorHood
v 0.3125 0.5625 0.3125
v 0.3125 0.5625 -0.3125
v 0.3125 -0.0625 0.3125
v 0.3125 -0.0625 -0.3125
v -0.3125 0.5625 -0.3125
v -0.3125 0.5625 0.3125
v -0.3125 -0.0625 -0.3125
v -0.3125 -0.0625 0.3125
vt 0.5416666666666666 0.9166666666666666
vt 0.625 0.9166666666666666
vt 0.625 0.8333333333333334
vt 0.5416666666666666 0.8333333333333334
vt 0.4583333333333333 0.9166666666666666
vt 0.5416666666666666 0.9166666666666666
vt 0.5416666666666666 0.8333333333333334
vt 0.4583333333333333 0.8333333333333334
vt 0.7083333333333334 0.9166666666666666
vt 0.7916666666666666 0.9166666666666666
vt 0.7916666666666666 0.8333333333333334
vt 0.7083333333333334 0.8333333333333334
vt 0.625 0.9166666666666666
vt 0.7083333333333334 0.9166666666666666
vt 0.7083333333333334 0.8333333333333334
vt 0.625 0.8333333333333334
vt 0.625 0.9166666666666666
vt 0.5416666666666666 0.9166666666666666
vt 0.5416666666666666 1
vt 0.625 1
vn 0 0 -1
vn 1 0 0
vn 0 0 1
vn -1 0 0
vn 0 1 0
usemtl none
f 28/64/16 31/63/16 29/62/16 26/61/16
f 27/68/17 28/67/17 26/66/17 25/65/17
f 32/72/18 27/71/18 25/70/18 30/69/18
f 31/76/19 32/75/19 30/74/19 29/73/19
f 30/80/20 25/79/20 26/78/20 29/77/20