# Made in Blockbench 5.1.4
mtllib pumpkin.geo.mtl

o armorHead
v 0.2875 0.4999999999999999 0.2875
v 0.2875 0.4999999999999999 -0.2875
v 0.2875 -0.012500000000000067 0.2875
v 0.2875 -0.012500000000000067 -0.2875
v -0.2875 0.4999999999999999 -0.2875
v -0.2875 0.4999999999999999 0.2875
v -0.2875 -0.012500000000000067 -0.2875
v -0.2875 -0.012500000000000067 0.2875
vt 0.17708333333333334 0.9375
vt 0.20833333333333334 0.9375
vt 0.20833333333333334 0.96875
vt 0.17708333333333334 0.96875
vt 0.2916666666666667 0.9270833333333334
vt 0.3229166666666667 0.9270833333333334
vt 0.3229166666666667 0.9583333333333334
vt 0.2916666666666667 0.9583333333333334
vt 0.17708333333333334 0.9375
vt 0.20833333333333334 0.9375
vt 0.20833333333333334 0.96875
vt 0.17708333333333334 0.96875
vt 0.17708333333333334 0.9375
vt 0.20833333333333334 0.9375
vt 0.20833333333333334 0.96875
vt 0.17708333333333334 0.96875
vt 0.17708333333333334 0.9375
vt 0.20833333333333334 0.9375
vt 0.20833333333333334 0.96875
vt 0.17708333333333334 0.96875
vt 0.14583333333333334 0.9375
vt 0.17708333333333334 0.9375
vt 0.17708333333333334 0.96875
vt 0.14583333333333334 0.96875
vn 0 0 -1
vn 1 0 0
vn 0 0 1
vn -1 0 0
vn 0 1 0
vn 0 -1 0
usemtl none
f 4/4/1 7/3/1 5/2/1 2/1/1
f 3/8/2 4/7/2 2/6/2 1/5/2
f 8/12/3 3/11/3 1/10/3 6/9/3
f 7/16/4 8/15/4 6/14/4 5/13/4
f 6/20/5 1/19/5 2/18/5 5/17/5
f 7/24/6 4/23/6 3/22/6 8/21/6
o armorHead
v 0.30625 0.5125000000000001 0.30625
v 0.30625 0.5125000000000001 -0.30625
v 0.30625 -0.03749999999999998 0.30625
v 0.30625 -0.03749999999999998 -0.30625
v -0.30625 0.5125000000000001 -0.30625
v -0.30625 0.5125000000000001 0.30625
v -0.30625 -0.03749999999999998 -0.30625
v -0.30625 -0.03749999999999998 0.30625
vt 0.08333333333333333 0.08333333333333337
vt 0.16666666666666666 0.08333333333333337
vt 0.16666666666666666 0
vt 0.08333333333333333 0
vt 0 0.08333333333333337
vt 0.08333333333333333 0.08333333333333337
vt 0.08333333333333333 0
vt 0 0
vt 0.25 0.08333333333333337
vt 0.3333333333333333 0.08333333333333337
vt 0.3333333333333333 0
vt 0.25 0
vt 0.16666666666666666 0.08333333333333337
vt 0.25 0.08333333333333337
vt 0.25 0
vt 0.16666666666666666 0
vt 0.08333333333333333 0.16666666666666663
vt 0.16666666666666666 0.16666666666666663
vt 0.16666666666666666 0.08333333333333337
vt 0.08333333333333333 0.08333333333333337
vt 0.16666666666666666 0.16666666666666663
vt 0.25 0.16666666666666663
vt 0.25 0.08333333333333337
vt 0.16666666666666666 0.08333333333333337
vn 0 0 -1
vn 1 0 0
vn 0 0 1
vn -1 0 0
vn 0 1 0
vn 0 -1 0
usemtl none
f 12/28/7 15/27/7 13/26/7 10/25/7
f 11/32/8 12/31/8 10/30/8 9/29/8
f 16/36/9 11/35/9 9/34/9 14/33/9
f 15/40/10 16/39/10 14/38/10 13/37/10
f 14/44/11 9/43/11 10/42/11 13/41/11
f 15/48/12 12/47/12 11/46/12 16/45/12
o witch_hat
v 0.5 0.4125000000000001 0.5
v 0.5 0.4125000000000001 -0.5
v 0.5 0.3500000000000001 0.5
v 0.5 0.3500000000000001 -0.5
v -0.5 0.4125000000000001 -0.5
v -0.5 0.4125000000000001 0.5
v -0.5 0.3500000000000001 -0.5
v -0.5 0.3500000000000001 0.5
vt 0.8333333333333334 0.84375
vt 1 0.84375
vt 1 0.8333333333333334
vt 0.8333333333333334 0.8333333333333334
vt 0.8333333333333334 0.84375
vt 1 0.84375
vt 1 0.8333333333333334
vt 0.8333333333333334 0.8333333333333334
vt 0.8333333333333334 0.84375
vt 1 0.84375
vt 1 0.8333333333333334
vt 0.8333333333333334 0.8333333333333334
vt 0.8333333333333334 0.84375
vt 1 0.84375
vt 1 0.8333333333333334
vt 0.8333333333333334 0.8333333333333334
vt 0.8333333333333334 1
vt 1 1
vt 1 0.8333333333333334
vt 0.8333333333333334 0.8333333333333334
vt 0.8333333333333334 1
vt 1 1
vt 1 0.8333333333333334
vt 0.8333333333333334 0.8333333333333334
vn 0 0 -1
vn 1 0 0
vn 0 0 1
vn -1 0 0
vn 0 1 0
vn 0 -1 0
usemtl none
f 20/52/13 23/51/13 21/50/13 18/49/13
f 19/56/14 20/55/14 18/54/14 17/53/14
f 24/60/15 19/59/15 17/58/15 22/57/15
f 23/64/16 24/63/16 22/62/16 21/61/16
f 22/68/17 17/67/17 18/66/17 21/65/17
f 23/72/18 20/71/18 19/70/18 24/69/18
o rot1
v 0.3125 0.6735715106926632 0.325833627795998
v 0.3125 0.7008336277959981 -0.2985715106926631
v 0.3125 0.3613689414483325 0.31220256924433054
v 0.3125 0.3886310585516675 -0.31220256924433054
v -0.3125 0.7008336277959981 -0.2985715106926631
v -0.3125 0.6735715106926632 0.325833627795998
v -0.3125 0.3886310585516675 -0.31220256924433054
v -0.3125 0.3613689414483325 0.31220256924433054
vt 0.4375 0.8854166666666666
vt 0.5416666666666666 0.8854166666666666
vt 0.5416666666666666 0.8333333333333334
vt 0.4375 0.8333333333333334
vt 0.3333333333333333 0.8854166666666666
vt 0.4375 0.8854166666666666
vt 0.4375 0.8333333333333334
vt 0.3333333333333333 0.8333333333333334
vt 0.625 0.8854166666666666
vt 0.7291666666666666 0.8854166666666666
vt 0.7291666666666666 0.8333333333333334
vt 0.625 0.8333333333333334
vt 0.5416666666666666 0.8854166666666666
vt 0.6458333333333334 0.8854166666666666
vt 0.6458333333333334 0.8333333333333334
vt 0.5416666666666666 0.8333333333333334
vt 0.3333333333333333 1
vt 0.4375 1
vt 0.4375 0.8958333333333334
vt 0.3333333333333333 0.8958333333333334
vt 0.3333333333333333 1
vt 0.4375 1
vt 0.4375 0.8958333333333334
vt 0.3333333333333333 0.8958333333333334
vn 0 0.043619387365336 -0.9990482215818578
vn 1 0 0
vn 0 -0.043619387365336 0.9990482215818578
vn -1 0 0
vn 0 0.9990482215818578 0.043619387365336
vn 0 -0.9990482215818578 -0.043619387365336
usemtl none
f 28/76/19 31/75/19 29/74/19 26/73/19
f 27/80/20 28/79/20 26/78/20 25/77/20
f 32/84/21 27/83/21 25/82/21 30/81/21
f 31/88/22 32/87/22 30/86/22 29/85/22
f 30/92/23 25/91/23 26/90/23 29/89/23
f 31/96/24 28/95/24 27/94/24 32/93/24
o rot1
v 0.328125 0.6385476751482033 0.33994433981753114
v 0.328125 0.6671728981067051 -0.31568105559556303
v 0.328125 0.4200058766771719 0.3304025988313639
v 0.328125 0.44863109963567366 -0.32522279658173026
v -0.328125 0.6671728981067051 -0.31568105559556303
v -0.328125 0.6385476751482033 0.33994433981753114
v -0.328125 0.44863109963567366 -0.32522279658173026
v -0.328125 0.4200058766771719 0.3304025988313639
vt 0.5833333333333334 0.15625
vt 0.6875 0.15625
vt 0.6875 0.125
vt 0.5833333333333334 0.125
vt 0.4895833333333333 0.15625
vt 0.59375 0.15625
vt 0.59375 0.125
vt 0.4895833333333333 0.125
vt 0.5104166666666666 0.15625
vt 0.6145833333333334 0.15625
vt 0.6145833333333334 0.125
vt 0.5104166666666666 0.125
vt 0.4583333333333333 0.15625
vt 0.5625 0.15625
vt 0.5625 0.125
vt 0.4583333333333333 0.125
vn 0 0.043619387365336 -0.9990482215818578
vn 1 0 0
vn 0 -0.043619387365336 0.9990482215818578
vn -1 0 0
usemtl none
f 36/100/25 39/99/25 37/98/25 34/97/25
f 35/104/26 36/103/26 34/102/26 33/101/26
f 40/108/27 35/107/27 33/106/27 38/105/27
f 39/112/28 40/111/28 38/110/28 37/109/28
o rot2
v 0.1875 0.8869786770081037 0.2495754960543875
v 0.1875 0.9359259990906231 -0.12221632696079135
v 0.1875 0.6391174616646511 0.2169439479993746
v 0.1875 0.6880647837471705 -0.15484787501580424
v -0.1875 0.9359259990906231 -0.12221632696079135
v -0.1875 0.8869786770081037 0.2495754960543875
v -0.1875 0.6880647837471705 -0.15484787501580424
v -0.1875 0.6391174616646511 0.2169439479993746
vt 0.4375 0.875
vt 0.5 0.875
vt 0.5 0.8333333333333334
vt 0.4375 0.8333333333333334
vt 0.3333333333333333 0.8854166666666666
vt 0.3958333333333333 0.8854166666666666
vt 0.3958333333333333 0.84375
vt 0.3333333333333333 0.84375
vt 0.6458333333333334 0.8854166666666666
vt 0.7083333333333334 0.8854166666666666
vt 0.7083333333333334 0.84375
vt 0.6458333333333334 0.84375
vt 0.5416666666666666 0.8854166666666666
vt 0.6041666666666666 0.8854166666666666
vt 0.6041666666666666 0.84375
vt 0.5416666666666666 0.84375
vt 0.3541666666666667 0.9791666666666666
vt 0.4166666666666667 0.9791666666666666
vt 0.4166666666666667 0.9166666666666666
vt 0.3541666666666667 0.9166666666666666
vt 0.3541666666666667 0.9791666666666666
vt 0.4166666666666667 0.9791666666666666
vt 0.4166666666666667 0.9166666666666666
vt 0.3541666666666667 0.9166666666666666
vn 0 0.1305261922200516 -0.9914448613738104
vn 1 0 0
vn 0 -0.1305261922200516 0.9914448613738104
vn -1 0 0
vn 0 0.9914448613738104 0.1305261922200516
vn 0 -0.9914448613738104 -0.1305261922200516
usemtl none
f 44/116/29 47/115/29 45/114/29 42/113/29
f 43/120/30 44/119/30 42/118/30 41/117/30
f 48/124/31 43/123/31 41/122/31 46/121/31
f 47/128/32 48/127/32 46/126/32 45/125/32
f 46/132/33 41/131/33 42/130/33 45/129/33
f 47/136/34 44/135/34 43/134/34 48/133/34
o rot3
v 0.09375 1.0876411956400025 0.2299584786827493
v 0.09375 1.1517699725135655 0.053766112285391465
v 0.09375 0.8527180404435254 0.14445344285133213
v 0.09375 0.9168468173170883 -0.0317389235460257
v -0.09375 1.1517699725135655 0.053766112285391465
v -0.09375 1.0876411956400025 0.2299584786827493
v -0.09375 0.9168468173170883 -0.0317389235460257
v -0.09375 0.8527180404435254 0.14445344285133213
vt 0.4479166666666667 0.875
vt 0.4791666666666667 0.875
vt 0.4791666666666667 0.8333333333333334
vt 0.4479166666666667 0.8333333333333334
vt 0.375 0.875
vt 0.40625 0.875
vt 0.40625 0.8333333333333334
vt 0.375 0.8333333333333334
vt 0.5625 0.875
vt 0.59375 0.875
vt 0.59375 0.8333333333333334
vt 0.5625 0.8333333333333334
vt 0.4895833333333333 0.875
vt 0.5208333333333334 0.875
vt 0.5208333333333334 0.8333333333333334
vt 0.4895833333333333 0.8333333333333334
vt 0.3645833333333333 0.96875
vt 0.3958333333333333 0.96875
vt 0.3958333333333333 0.9375
vt 0.3645833333333333 0.9375
vt 0.3645833333333333 0.96875
vt 0.3958333333333333 0.96875
vt 0.3958333333333333 0.9375
vt 0.3645833333333333 0.9375
vn 0 0.34202014332566877 -0.9396926207859083
vn 1 0 0
vn 0 -0.34202014332566877 0.9396926207859083
vn -1 0 0
vn 0 0.9396926207859083 0.34202014332566877
vn 0 -0.9396926207859083 -0.34202014332566877
usemtl none
f 52/140/35 55/139/35 53/138/35 50/137/35
f 51/144/36 52/143/36 50/142/36 49/141/36
f 56/148/37 51/147/37 49/146/37 54/145/37
f 55/152/38 56/151/38 54/150/38 53/149/38
f 54/156/39 49/155/39 50/154/39 53/153/39
f 55/160/40 52/159/40 51/158/40 56/157/40
o pilgrim_hat
v 0.5 0.4125000000000001 0.5
v 0.5 0.4125000000000001 -0.5
v 0.5 0.3500000000000001 0.5
v 0.5 0.3500000000000001 -0.5
v -0.5 0.4125000000000001 -0.5
v -0.5 0.4125000000000001 0.5
v -0.5 0.3500000000000001 -0.5
v -0.5 0.3500000000000001 0.5
vt 0.8333333333333334 0.84375
vt 1 0.84375
vt 1 0.8333333333333334
vt 0.8333333333333334 0.8333333333333334
vt 0.8333333333333334 0.84375
vt 1 0.84375
vt 1 0.8333333333333334
vt 0.8333333333333334 0.8333333333333334
vt 0.8333333333333334 0.84375
vt 1 0.84375
vt 1 0.8333333333333334
vt 0.8333333333333334 0.8333333333333334
vt 0.8333333333333334 0.84375
vt 1 0.84375
vt 1 0.8333333333333334
vt 0.8333333333333334 0.8333333333333334
vt 0.8333333333333334 1
vt 1 1
vt 1 0.8333333333333334
vt 0.8333333333333334 0.8333333333333334
vt 0.8333333333333334 1
vt 1 1
vt 1 0.8333333333333334
vt 0.8333333333333334 0.8333333333333334
vn 0 0 -1
vn 1 0 0
vn 0 0 1
vn -1 0 0
vn 0 1 0
vn 0 -1 0
usemtl none
f 60/164/41 63/163/41 61/162/41 58/161/41
f 59/168/42 60/167/42 58/166/42 57/165/42
f 64/172/43 59/171/43 57/170/43 62/169/43
f 63/176/44 64/175/44 62/174/44 61/173/44
f 62/180/45 57/179/45 58/178/45 61/177/45
f 63/184/46 60/183/46 59/182/46 64/181/46
o hat1
v 0.25 1.0968407592382403 0.28173855606651277
v 0.25 1.1511058147591562 -0.026013866749802245
v 0.25 0.3582349444790843 0.15150242281631499
v 0.25 0.4125000000000001 -0.15625
v -0.25 1.1511058147591562 -0.026013866749802245
v -0.25 1.0968407592382403 0.28173855606651277
v -0.25 0.4125000000000001 -0.15625
v -0.25 0.3582349444790843 0.15150242281631499
vt 0.8645833333333334 0.23958333333333337
vt 0.9479166666666666 0.23958333333333337
vt 0.9479166666666666 0.11458333333333337
vt 0.8645833333333334 0.11458333333333337
vt 0.8125 0.23958333333333337
vt 0.8645833333333334 0.23958333333333337
vt 0.8645833333333334 0.11458333333333337
vt 0.8125 0.11458333333333337
vt 0.7291666666666666 0.23958333333333337
vt 0.8125 0.23958333333333337
vt 0.8125 0.11458333333333337
vt 0.7291666666666666 0.11458333333333337
vt 0.9479166666666666 0.23958333333333337
vt 1 0.23958333333333337
vt 1 0.11458333333333337
vt 0.9479166666666666 0.11458333333333337
vt 0.8645833333333334 0.29166666666666663
vt 0.9479166666666666 0.29166666666666663
vt 0.9479166666666666 0.23958333333333337
vt 0.8645833333333334 0.23958333333333337
vt 0.8645833333333334 0.29166666666666663
vt 0.9479166666666666 0.29166666666666663
vt 0.9479166666666666 0.23958333333333337
vt 0.8645833333333334 0.23958333333333337
vn 0 0.17364817766693033 -0.984807753012208
vn 1 0 0
vn 0 -0.17364817766693033 0.984807753012208
vn -1 0 0
vn 0 0.984807753012208 0.17364817766693033
vn 0 -0.984807753012208 -0.17364817766693033
usemtl none
f 68/188/47 71/187/47 69/186/47 66/185/47
f 67/192/48 68/191/48 66/190/48 65/189/48
f 72/196/49 67/195/49 65/194/49 70/193/49
f 71/200/50 72/199/50 70/198/50 69/197/50
f 70/204/51 65/203/51 66/202/51 69/201/51
f 71/208/52 68/207/52 67/206/52 72/205/52
o hat2
v 0.2496875 0.7044585204314522 0.3604305421195587
v 0.2496875 0.8959696312111967 0.5211274445411935
v 0.2496875 0.9053296484584956 0.12104165364487796
v 0.2496875 1.0968407592382403 0.28173855606651277
v -0.2496875 0.8959696312111967 0.5211274445411935
v -0.2496875 0.7044585204314522 0.3604305421195587
v -0.2496875 1.0968407592382403 0.28173855606651277
v -0.2496875 0.9053296484584956 0.12104165364487796
vt 0.8645833333333334 0.29166666666666663
vt 0.9479166666666666 0.29166666666666663
vt 0.9479166666666666 0.23958333333333337
vt 0.8645833333333334 0.23958333333333337
vt 0.8333333333333334 0.07291666666666663
vt 0.875 0.07291666666666663
vt 0.875 0.02083333333333337
vt 0.8333333333333334 0.02083333333333337
vt 0.8645833333333334 0.29166666666666663
vt 0.9479166666666666 0.29166666666666663
vt 0.9479166666666666 0.23958333333333337
vt 0.8645833333333334 0.23958333333333337
vt 0.9583333333333334 0.07291666666666663
vt 1 0.07291666666666663
vt 1 0.02083333333333337
vt 0.9583333333333334 0.02083333333333337
vt 0.8645833333333334 0.29166666666666663
vt 0.9479166666666666 0.29166666666666663
vt 0.9479166666666666 0.23958333333333337
vt 0.8645833333333334 0.23958333333333337
vt 0.875 0.11458333333333337
vt 0.9583333333333334 0.11458333333333337
vt 0.9583333333333334 0.07291666666666663
vt 0.875 0.07291666666666663
vn 0 0.7660444431189782 0.6427876096865391
vn 1 0 0
vn 0 -0.7660444431189782 -0.6427876096865391
vn -1 0 0
vn 0 -0.6427876096865391 0.7660444431189782
vn 0 0.6427876096865391 -0.7660444431189782
usemtl none
f 76/212/53 79/211/53 77/210/53 74/209/53
f 75/216/54 76/215/54 74/214/54 73/213/54
f 80/220/55 75/219/55 73/218/55 78/217/55
f 79/224/56 80/223/56 78/222/56 77/221/56
f 78/228/57 73/227/57 74/226/57 77/225/57
f 79/232/58 76/231/58 75/230/58 80/229/58
o armorBodyHeadLayer
v 0.34375 0.4906250000000001 0.325
v 0.34375 0.4906250000000001 -0.2375
v 0.34375 -0.07187499999999991 0.325
v 0.34375 -0.07187499999999991 -0.2375
v -0.34375 0.4906250000000001 -0.2375
v -0.34375 0.4906250000000001 0.325
v -0.34375 -0.07187499999999991 -0.2375
v -0.34375 -0.07187499999999991 0.325
vt 0.6458333333333334 0.7916666666666666
vt 0.7291666666666666 0.7916666666666666
vt 0.7291666666666666 0.7291666666666667
vt 0.6458333333333334 0.7291666666666667
vt 0.5833333333333334 0.7916666666666666
vt 0.6458333333333334 0.7916666666666666
vt 0.6458333333333334 0.7291666666666667
vt 0.5833333333333334 0.7291666666666667
vt 0.7916666666666666 0.7916666666666666
vt 0.875 0.7916666666666666
vt 0.875 0.7291666666666667
vt 0.7916666666666666 0.7291666666666667
vt 0.7291666666666666 0.7916666666666666
vt 0.7916666666666666 0.7916666666666666
vt 0.7916666666666666 0.7291666666666667
vt 0.7291666666666666 0.7291666666666667
vt 0.6458333333333334 0.7291666666666667
vt 0.7291666666666666 0.7291666666666667
vt 0.7291666666666666 0.6666666666666667
vt 0.6458333333333334 0.6666666666666667
vn 0 0 -1
vn 1 0 0
vn 0 0 1
vn -1 0 0
vn 0 -1 0
usemtl none
f 84/236/59 87/235/59 85/234/59 82/233/59
f 83/240/60 84/239/60 82/238/60 81/237/60
f 88/244/61 83/243/61 81/242/61 86/241/61
f 87/248/62 88/247/62 86/246/62 85/245/62
f 87/252/63 84/251/63 83/250/63 88/249/63