# Made in Blockbench 5.1.4
mtllib pyromancer.geo.mtl

o armorHead
v 0.271875 0.521875 0.271875
v 0.271875 0.521875 -0.271875
v 0.271875 -0.021874999999999978 0.271875
v 0.271875 -0.021874999999999978 -0.271875
v -0.271875 0.521875 -0.271875
v -0.271875 0.521875 0.271875
v -0.271875 -0.021874999999999978 -0.271875
v -0.271875 -0.021874999999999978 0.271875
vt 0.08333333333333333 0.9166666666666666
vt 0.16666666666666666 0.9166666666666666
vt 0.16666666666666666 0.8333333333333334
vt 0.08333333333333333 0.8333333333333334
vt 0 0.9166666666666666
vt 0.08333333333333333 0.9166666666666666
vt 0.08333333333333333 0.8333333333333334
vt 0 0.8333333333333334
vt 0.25 0.9166666666666666
vt 0.3333333333333333 0.9166666666666666
vt 0.3333333333333333 0.8333333333333334
vt 0.25 0.8333333333333334
vt 0.16666666666666666 0.9166666666666666
vt 0.25 0.9166666666666666
vt 0.25 0.8333333333333334
vt 0.16666666666666666 0.8333333333333334
vt 0.16666666666666666 0.9166666666666666
vt 0.08333333333333333 0.9166666666666666
vt 0.08333333333333333 0.9895833333333334
vt 0.16666666666666666 0.9895833333333334
vt 0.25 1
vt 0.16666666666666666 1
vt 0.16666666666666666 0.9166666666666666
vt 0.25 0.9166666666666666
vn 0 0 -1
vn 1 0 0
vn 0 0 1
vn -1 0 0
vn 0 1 0
vn 0 -1 0
usemtl none
f 4/4/1 7/3/1 5/2/1 2/1/1
f 3/8/2 4/7/2 2/6/2 1/5/2
f 8/12/3 3/11/3 1/10/3 6/9/3
f 7/16/4 8/15/4 6/14/4 5/13/4
f 6/20/5 1/19/5 2/18/5 5/17/5
f 7/24/6 4/23/6 3/22/6 8/21/6
o hat
v 0.5 0.3594403063173321 0.4370241107909289
v 0.5 0.3812500000000001 -0.0625
v 0.5 0.3594403063173321 0.4370241107909289
v 0.5 0.3812500000000001 -0.0625
v -0.5 0.3812500000000001 -0.0625
v -0.5 0.3594403063173321 0.4370241107909289
v -0.5 0.3812500000000001 -0.0625
v -0.5 0.3594403063173321 0.4370241107909289
vt 0.8333333333333334 0.9166666666666666
vt 1 0.9166666666666666
vt 1 1
vt 0.8333333333333334 1
vn 0 0.9990482215818578 0.043619387365336
usemtl none
f 14/28/7 9/27/7 10/26/7 13/25/7
o hat
v 0.5 0.3812500000000001 -0.0625
v 0.5 0.23089710024786356 -0.5393584753741134
v 0.5 0.3812500000000001 -0.0625
v 0.5 0.23089710024786356 -0.5393584753741134
v -0.5 0.23089710024786356 -0.5393584753741134
v -0.5 0.3812500000000001 -0.0625
v -0.5 0.23089710024786356 -0.5393584753741134
v -0.5 0.3812500000000001 -0.0625
vt 0.8333333333333334 0.8333333333333334
vt 1 0.8333333333333334
vt 1 0.9166666666666666
vt 0.8333333333333334 0.9166666666666666
vn 0 0.9537169507482269 -0.30070579950427306
usemtl none
f 22/32/8 17/31/8 18/30/8 21/29/8
o hat
v 0.284375 0.565625 0.284375
v 0.284375 0.565625 -0.284375
v 0.284375 0.309375 0.284375
v 0.284375 0.309375 -0.284375
v -0.284375 0.565625 -0.284375
v -0.284375 0.565625 0.284375
v -0.284375 0.309375 -0.284375
v -0.284375 0.309375 0.284375
vt 0.4479166666666667 0.875
vt 0.5416666666666666 0.875
vt 0.5416666666666666 0.8333333333333334
vt 0.4479166666666667 0.8333333333333334
vt 0.3333333333333333 0.875
vt 0.4270833333333333 0.875
vt 0.4270833333333333 0.8333333333333334
vt 0.3333333333333333 0.8333333333333334
vt 0.6458333333333334 0.875
vt 0.7395833333333334 0.875
vt 0.7395833333333334 0.8333333333333334
vt 0.6458333333333334 0.8333333333333334
vt 0.5416666666666666 0.875
vt 0.6354166666666666 0.875
vt 0.6354166666666666 0.8333333333333334
vt 0.5416666666666666 0.8333333333333334
vt 0.4270833333333333 0.90625
vt 0.3333333333333333 0.90625
vt 0.3333333333333333 1
vt 0.4270833333333333 1
vt 0.5833333333333334 1
vt 0.5 1
vt 0.5 0.9166666666666666
vt 0.5833333333333334 0.9166666666666666
vn 0 0 -1
vn 1 0 0
vn 0 0 1
vn -1 0 0
vn 0 1 0
vn 0 -1 0
usemtl none
f 28/36/9 31/35/9 29/34/9 26/33/9
f 27/40/10 28/39/10 26/38/10 25/37/10
f 32/44/11 27/43/11 25/42/11 30/41/11
f 31/48/12 32/47/12 30/46/12 29/45/12
f 30/52/13 25/51/13 26/50/13 29/49/13
f 31/56/14 28/55/14 27/54/14 32/53/14
o hat_rotate_1
v 0.1930989924471968 0.7981811137457886 0.25138469362026405
v 0.18553878515508385 0.8556065893779103 -0.18856896361436426
v 0.23434827776041106 0.4848616851809684 0.2097794698501226
v 0.22678807046829808 0.5422871608130901 -0.2301741873845057
v -0.2544148720795445 0.7976855915802625 -0.18856896361436426
v -0.24685466478743154 0.7402601159481408 0.25138469362026405
v -0.2131655867663302 0.4843661630154422 -0.2301741873845057
v -0.20560537947421728 0.42694068738332047 0.2097794698501226
vt 0.59375 0.8854166666666666
vt 0.6666666666666666 0.8854166666666666
vt 0.6666666666666666 0.8333333333333334
vt 0.59375 0.8333333333333334
vt 0.34375 0.8854166666666666
vt 0.4166666666666667 0.8854166666666666
vt 0.4166666666666667 0.8333333333333334
vt 0.34375 0.8333333333333334
vt 0.4270833333333333 0.8854166666666666
vt 0.5 0.8854166666666666
vt 0.5 0.8333333333333334
vt 0.4270833333333333 0.8333333333333334
vt 0.5104166666666666 0.8854166666666666
vt 0.5833333333333334 0.8854166666666666
vt 0.5833333333333334 0.8333333333333334
vt 0.5104166666666666 0.8333333333333334
vt 0.4166666666666667 0.9166666666666666
vt 0.34375 0.9166666666666666
vt 0.34375 0.9895833333333334
vt 0.4166666666666667 0.9895833333333334
vt 0.5729166666666666 1
vt 0.5 1
vt 0.5 0.9270833333333334
vt 0.5729166666666666 0.9270833333333334
vn -0.017037086855465854 0.1294095225512604 -0.9914448613738105
vn 0.9914448613738105 0.1305261922200516 3.469446951953615e-18
vn 0.017037086855465854 -0.1294095225512604 0.9914448613738105
vn -0.9914448613738105 -0.1305261922200516 -3.469446951953615e-18
vn -0.12940952255126037 0.9829629131445341 0.13052619222005157
vn 0.12940952255126037 -0.9829629131445341 -0.13052619222005157
usemtl none
f 36/60/15 39/59/15 37/58/15 34/57/15
f 35/64/16 36/63/16 34/62/16 33/61/16
f 40/68/17 35/67/17 33/66/17 38/65/17
f 39/72/18 40/71/18 38/70/18 37/69/18
f 38/76/19 33/75/19 34/74/19 37/73/19
f 39/80/20 36/79/20 35/78/20 40/77/20
o hat_rotate_2
v -0.03701099636994565 1.0773692281121927 0.2188906613731828
v -0.04461568871322108 1.1351325380469137 0.03410800206839448
v 0.09113561694553896 0.7361911921891124 0.10696409705781962
v 0.08353092460226352 0.7939545021238337 -0.07781856224696868
v -0.22693446536562278 1.0707904027656132 0.02149785506629831
v -0.21932977302234735 1.0130270928308922 0.20628051437108663
v -0.09878785205013824 0.7296123668425332 -0.0904287092490649
v -0.0911831597068628 0.6718490569078119 0.09435395005572345
vt 0.7083333333333334 0.8958333333333334
vt 0.7395833333333334 0.8958333333333334
vt 0.7395833333333334 0.8333333333333334
vt 0.7083333333333334 0.8333333333333334
vt 0.5104166666666666 0.8958333333333334
vt 0.5416666666666666 0.8958333333333334
vt 0.5416666666666666 0.8333333333333334
vt 0.5104166666666666 0.8333333333333334
vt 0.5625 0.8958333333333334
vt 0.59375 0.8958333333333334
vt 0.59375 0.8333333333333334
vt 0.5625 0.8333333333333334
vt 0.3541666666666667 0.8958333333333334
vt 0.3854166666666667 0.8958333333333334
vt 0.3854166666666667 0.8333333333333334
vt 0.3541666666666667 0.8333333333333334
vt 0.3854166666666667 0.9479166666666666
vt 0.3541666666666667 0.9479166666666666
vt 0.3541666666666667 0.9791666666666666
vt 0.3854166666666667 0.9791666666666666
vt 0.5833333333333334 1
vt 0.5 1
vt 0.5 0.9166666666666666
vt 0.5833333333333334 0.9166666666666666
vn -0.039250024997550766 0.29813321256630254 -0.9537169512505205
vn 0.9410001375607834 0.3320884401615508 0.0650846296882386
vn 0.039250024997550766 -0.29813321256630254 0.9537169512505205
vn -0.9410001375607834 -0.3320884401615508 -0.0650846296882386
vn -0.33612226443405785 0.8948932089785709 0.29357787361406745
vn 0.33612226443405785 -0.8948932089785709 -0.29357787361406745
usemtl none
f 44/84/21 47/83/21 45/82/21 42/81/21
f 43/88/22 44/87/22 42/86/22 41/85/22
f 48/92/23 43/91/23 41/90/23 46/89/23
f 47/96/24 48/95/24 46/94/24 45/93/24
f 46/100/25 41/99/25 42/98/25 45/97/25
f 47/104/26 44/103/26 43/102/26 48/101/26