# Made in Blockbench 5.1.4
mtllib shadowwalker.geo.mtl

o armorHead
v 0.29375 0.54375 0.29375
v 0.29375 0.54375 -0.29375
v 0.29375 -0.04375000000000001 0.29375
v 0.29375 -0.04375000000000001 -0.29375
v -0.29375 0.54375 -0.29375
v -0.29375 0.54375 0.29375
v -0.29375 -0.04375000000000001 -0.29375
v -0.29375 -0.04375000000000001 0.29375
vt 0.5833333333333334 0.08333333333333337
vt 0.6666666666666666 0.08333333333333337
vt 0.6666666666666666 0
vt 0.5833333333333334 0
vt 0.5 0.08333333333333337
vt 0.5833333333333334 0.08333333333333337
vt 0.5833333333333334 0
vt 0.5 0
vt 0.75 0.08333333333333337
vt 0.8333333333333334 0.08333333333333337
vt 0.8333333333333334 0
vt 0.75 0
vt 0.6666666666666666 0.08333333333333337
vt 0.75 0.08333333333333337
vt 0.75 0
vt 0.6666666666666666 0
vt 0.6666666666666666 0.08333333333333337
vt 0.5833333333333334 0.08333333333333337
vt 0.5833333333333334 0.16666666666666663
vt 0.6666666666666666 0.16666666666666663
vt 0.75 0.16666666666666663
vt 0.6666666666666666 0.16666666666666663
vt 0.6666666666666666 0.08333333333333337
vt 0.75 0.08333333333333337
vn 0 0 -1
vn 1 0 0
vn 0 0 1
vn -1 0 0
vn 0 1 0
vn 0 -1 0
usemtl none
f 4/4/1 7/3/1 5/2/1 2/1/1
f 3/8/2 4/7/2 2/6/2 1/5/2
f 8/12/3 3/11/3 1/10/3 6/9/3
f 7/16/4 8/15/4 6/14/4 5/13/4
f 6/20/5 1/19/5 2/18/5 5/17/5
f 7/24/6 4/23/6 3/22/6 8/21/6
o armorHead
v 0.3125 0.5625 0.3125
v 0.3125 0.5625 -0.3125
v 0.3125 -0.0625 0.3125
v 0.3125 -0.0625 -0.3125
v -0.3125 0.5625 -0.3125
v -0.3125 0.5625 0.3125
v -0.3125 -0.0625 -0.3125
v -0.3125 -0.0625 0.3125
vt 0.08333333333333333 0.9166666666666666
vt 0.16666666666666666 0.9166666666666666
vt 0.16666666666666666 0.8333333333333334
vt 0.08333333333333333 0.8333333333333334
vt 0 0.9166666666666666
vt 0.08333333333333333 0.9166666666666666
vt 0.08333333333333333 0.8333333333333334
vt 0 0.8333333333333334
vt 0.25 0.9166666666666666
vt 0.3333333333333333 0.9166666666666666
vt 0.3333333333333333 0.8333333333333334
vt 0.25 0.8333333333333334
vt 0.16666666666666666 0.9166666666666666
vt 0.25 0.9166666666666666
vt 0.25 0.8333333333333334
vt 0.16666666666666666 0.8333333333333334
vt 0.16666666666666666 0.9166666666666666
vt 0.08333333333333333 0.9166666666666666
vt 0.08333333333333333 1
vt 0.16666666666666666 1
vt 0.25 1
vt 0.16666666666666666 1
vt 0.16666666666666666 0.9166666666666666
vt 0.25 0.9166666666666666
vn 0 0 -1
vn 1 0 0
vn 0 0 1
vn -1 0 0
vn 0 1 0
vn 0 -1 0
usemtl none
f 12/28/7 15/27/7 13/26/7 10/25/7
f 11/32/8 12/31/8 10/30/8 9/29/8
f 16/36/9 11/35/9 9/34/9 14/33/9
f 15/40/10 16/39/10 14/38/10 13/37/10
f 14/44/11 9/43/11 10/42/11 13/41/11
f 15/48/12 12/47/12 11/46/12 16/45/12
o armorHead
v 0.281875 0.531875 0.281875
v 0.281875 0.531875 -0.281875
v 0.281875 -0.03187499999999999 0.281875
v 0.281875 -0.03187499999999999 -0.281875
v -0.281875 0.531875 -0.281875
v -0.281875 0.531875 0.281875
v -0.281875 -0.03187499999999999 -0.281875
v -0.281875 -0.03187499999999999 0.281875
vt 0.3333333333333333 0.08333333333333337
vt 0.25 0.08333333333333337
vt 0.25 0
vt 0.3333333333333333 0
vt 0.4166666666666667 0.08333333333333337
vt 0.3333333333333333 0.08333333333333337
vt 0.3333333333333333 0
vt 0.4166666666666667 0
vt 0.5 0.08333333333333337
vt 0.4166666666666667 0.08333333333333337
vt 0.4166666666666667 0
vt 0.5 0
vt 0.25 0.08333333333333337
vt 0.16666666666666666 0.08333333333333337
vt 0.16666666666666666 0
vt 0.25 0
vt 0.25 0.08333333333333337
vt 0.3333333333333333 0.08333333333333337
vt 0.3333333333333333 0.16666666666666663
vt 0.25 0.16666666666666663
vt 0.3333333333333333 0.16666666666666663
vt 0.4166666666666667 0.16666666666666663
vt 0.4166666666666667 0.08333333333333337
vt 0.3333333333333333 0.08333333333333337
vn 0 0 -1
vn 1 0 0
vn 0 0 1
vn -1 0 0
vn 0 1 0
vn 0 -1 0
usemtl none
f 20/52/13 23/51/13 21/50/13 18/49/13
f 19/56/14 20/55/14 18/54/14 17/53/14
f 24/60/15 19/59/15 17/58/15 22/57/15
f 23/64/16 24/63/16 22/62/16 21/61/16
f 22/68/17 17/67/17 18/66/17 21/65/17
f 23/72/18 20/71/18 19/70/18 24/69/18
o hood
v 0.311875 0.4774223656384562 0.5462487779248585
v 0.311875 0.5624998762907163 0.3125002385043637
v 0.311875 0.24367382621796152 0.4611712672725984
v 0.311875 0.3287513368702216 0.2274227278521036
v -0.311875 0.5624998762907163 0.3125002385043637
v -0.311875 0.4774223656384562 0.5462487779248585
v -0.311875 0.3287513368702216 0.2274227278521036
v -0.311875 0.24367382621796152 0.4611712672725984
vt 0.2708333333333333 0.9375
vt 0.3541666666666667 0.9375
vt 0.3541666666666667 0.9166666666666666
vt 0.2708333333333333 0.9166666666666666
vt 0.25 0.9375
vt 0.2708333333333333 0.9375
vt 0.2708333333333333 0.9166666666666666
vt 0.25 0.9166666666666666
vt 0.375 0.9375
vt 0.4583333333333333 0.9375
vt 0.4583333333333333 0.9166666666666666
vt 0.375 0.9166666666666666
vt 0.3541666666666667 0.9375
vt 0.375 0.9375
vt 0.375 0.9166666666666666
vt 0.3541666666666667 0.9166666666666666
vt 0.3541666666666667 0.9375
vt 0.2708333333333333 0.9375
vt 0.2708333333333333 0.9583333333333334
vt 0.3541666666666667 0.9583333333333334
vt 0.4375 0.9583333333333334
vt 0.3541666666666667 0.9583333333333334
vt 0.3541666666666667 0.9375
vt 0.4375 0.9375
vn 0 0.34202014332566866 -0.9396926207859084
vn 1 0 0
vn 0 -0.34202014332566866 0.9396926207859084
vn -1 0 0
vn 0 0.9396926207859084 0.34202014332566866
vn 0 -0.9396926207859084 -0.34202014332566866
usemtl none
f 28/76/19 31/75/19 29/74/19 26/73/19
f 27/80/20 28/79/20 26/78/20 25/77/20
f 32/84/21 27/83/21 25/82/21 30/81/21
f 31/88/22 32/87/22 30/86/22 29/85/22
f 30/92/23 25/91/23 26/90/23 29/89/23
f 31/96/24 28/95/24 27/94/24 32/93/24