# Made in Blockbench 5.1.4
mtllib tarnished.geo.mtl

o armorHead
v 0.321875 0.665625 0.321875
v 0.321875 0.665625 -0.321875
v 0.321875 0.021874999999999978 0.321875
v 0.321875 0.021874999999999978 -0.321875
v -0.321875 0.665625 -0.321875
v -0.321875 0.665625 0.321875
v -0.321875 0.021874999999999978 -0.321875
v -0.321875 0.021874999999999978 0.321875
vt 0.09375 0.9375
vt 0.1875 0.9375
vt 0.1875 0.84375
vt 0.09375 0.84375
vt 0 0.9375
vt 0.09375 0.9375
vt 0.09375 0.84375
vt 0 0.84375
vt 0.28125 0.9375
vt 0.375 0.9375
vt 0.375 0.84375
vt 0.28125 0.84375
vt 0.1875 0.9375
vt 0.28125 0.9375
vt 0.28125 0.84375
vt 0.1875 0.84375
vn 0 0 -1
vn 1 0 0
vn 0 0 1
vn -1 0 0
usemtl none
f 4/4/1 7/3/1 5/2/1 2/1/1
f 3/8/2 4/7/2 2/6/2 1/5/2
f 8/12/3 3/11/3 1/10/3 6/9/3
f 7/16/4 8/15/4 6/14/4 5/13/4
o armorHead
v 0.34375 0.6875 0.34375
v 0.34375 0.6875 -0.34375
v 0.34375 0 0.34375
v 0.34375 0 -0.34375
v -0.34375 0.6875 -0.34375
v -0.34375 0.6875 0.34375
v -0.34375 0 -0.34375
v -0.34375 0 0.34375
vt 0.46875 0.9375
vt 0.5625 0.9375
vt 0.5625 0.84375
vt 0.46875 0.84375
vt 0.375 0.9375
vt 0.46875 0.9375
vt 0.46875 0.84375
vt 0.375 0.84375
vt 0.65625 0.9375
vt 0.75 0.9375
vt 0.75 0.84375
vt 0.65625 0.84375
vt 0.5625 0.9375
vt 0.65625 0.9375
vt 0.65625 0.84375
vt 0.5625 0.84375
vn 0 0 -1
vn 1 0 0
vn 0 0 1
vn -1 0 0
usemtl none
f 12/20/5 15/19/5 13/18/5 10/17/5
f 11/24/6 12/23/6 10/22/6 9/21/6
f 16/28/7 11/27/7 9/26/7 14/25/7
f 15/32/8 16/31/8 14/30/8 13/29/8