# Made in Blockbench 5.1.4
mtllib wizard_hood.geo.mtl

o dyeHead
v 0.3125 0.5625 0.3125
v 0.3125 0.5625 -0.3125
v 0.3125 -0.0625 0.3125
v 0.3125 -0.0625 -0.3125
v -0.3125 0.5625 -0.3125
v -0.3125 0.5625 0.3125
v -0.3125 -0.0625 -0.3125
v -0.3125 -0.0625 0.3125
vt 0.08333333333333333 0.9166666666666666
vt 0.16666666666666666 0.9166666666666666
vt 0.16666666666666666 0.8333333333333334
vt 0.08333333333333333 0.8333333333333334
vt 0 0.9166666666666666
vt 0.08333333333333333 0.9166666666666666
vt 0.08333333333333333 0.8333333333333334
vt 0 0.8333333333333334
vt 0.25 0.9166666666666666
vt 0.3333333333333333 0.9166666666666666
vt 0.3333333333333333 0.8333333333333334
vt 0.25 0.8333333333333334
vt 0.16666666666666666 0.9166666666666666
vt 0.25 0.9166666666666666
vt 0.25 0.8333333333333334
vt 0.16666666666666666 0.8333333333333334
vt 0.16666666666666666 0.9166666666666666
vt 0.08333333333333333 0.9166666666666666
vt 0.08333333333333333 1
vt 0.16666666666666666 1
vt 0.25 1
vt 0.16666666666666666 1
vt 0.16666666666666666 0.9166666666666666
vt 0.25 0.9166666666666666
vn 0 0 -1
vn 1 0 0
vn 0 0 1
vn -1 0 0
vn 0 1 0
vn 0 -1 0
usemtl none
f 4/4/1 7/3/1 5/2/1 2/1/1
f 3/8/2 4/7/2 2/6/2 1/5/2
f 8/12/3 3/11/3 1/10/3 6/9/3
f 7/16/4 8/15/4 6/14/4 5/13/4
f 6/20/5 1/19/5 2/18/5 5/17/5
f 7/24/6 4/23/6 3/22/6 8/21/6
o dyeHood
v 0.311875 0.46649089434613633 0.5426532812747737
v 0.311875 0.5616833981469525 0.31283824756259127
v 0.311875 0.23667586063395363 0.4474607774739576
v 0.311875 0.33186836443476975 0.21764574376177515
v -0.311875 0.5616833981469525 0.31283824756259127
v -0.311875 0.46649089434613633 0.5426532812747737
v -0.311875 0.33186836443476975 0.21764574376177515
v -0.311875 0.23667586063395363 0.4474607774739576
vt 0.28125 0.9479166666666666
vt 0.375 0.9479166666666666
vt 0.375 0.9166666666666666
vt 0.28125 0.9166666666666666
vt 0.25 0.9479166666666666
vt 0.28125 0.9479166666666666
vt 0.28125 0.9166666666666666
vt 0.25 0.9166666666666666
vt 0.40625 0.9479166666666666
vt 0.5 0.9479166666666666
vt 0.5 0.9166666666666666
vt 0.40625 0.9166666666666666
vt 0.375 0.9479166666666666
vt 0.40625 0.9479166666666666
vt 0.40625 0.9166666666666666
vt 0.375 0.9166666666666666
vt 0.375 0.9479166666666666
vt 0.28125 0.9479166666666666
vt 0.28125 0.9791666666666666
vt 0.375 0.9791666666666666
vt 0.46875 0.9791666666666666
vt 0.375 0.9791666666666666
vt 0.375 0.9479166666666666
vt 0.46875 0.9479166666666666
vn 0 0.3826834323650897 -0.9238795325112867
vn 1 0 0
vn 0 -0.3826834323650897 0.9238795325112867
vn -1 0 0
vn 0 0.9238795325112867 0.3826834323650897
vn 0 -0.9238795325112867 -0.3826834323650897
usemtl none
f 12/28/7 15/27/7 13/26/7 10/25/7
f 11/32/8 12/31/8 10/30/8 9/29/8
f 16/36/9 11/35/9 9/34/9 14/33/9
f 15/40/10 16/39/10 14/38/10 13/37/10
f 14/44/11 9/43/11 10/42/11 13/41/11
f 15/48/12 12/47/12 11/46/12 16/45/12