# Made in Blockbench 5.1.4
mtllib wizard.geo.mtl

o belt
usemtl none
v 0.328125 0.5079027715478712 0.3656056362928389
v 0.328125 0.6499412681947512 -0.27508861837961734
v 0.328125 0.2943380199903857 0.3182594707438789
v 0.328125 0.4363765166372657 -0.32243478392857733
v -0.328125 0.6499412681947512 -0.27508861837961734
v -0.328125 0.5079027715478712 0.3656056362928389
v -0.328125 0.4363765166372657 -0.32243478392857733
v -0.328125 0.2943380199903857 0.3182594707438789
vt 0.6875 0.36458333333333337
vt 0.7916666666666666 0.36458333333333337
vt 0.7916666666666666 0.33333333333333337
vt 0.6875 0.33333333333333337
vt 0.5833333333333334 0.36458333333333337
vt 0.6875 0.36458333333333337
vt 0.6875 0.33333333333333337
vt 0.5833333333333334 0.33333333333333337
vt 0.8958333333333334 0.36458333333333337
vt 1 0.36458333333333337
vt 1 0.33333333333333337
vt 0.8958333333333334 0.33333333333333337
vt 0.7916666666666666 0.36458333333333337
vt 0.8958333333333334 0.36458333333333337
vt 0.8958333333333334 0.33333333333333337
vt 0.7916666666666666 0.33333333333333337
vt 0.7916666666666666 0.36458333333333337
vt 0.6875 0.36458333333333337
vt 0.6875 0.46875
vt 0.7916666666666666 0.46875
vt 0.8958333333333334 0.46875
vt 0.7916666666666666 0.46875
vt 0.7916666666666666 0.36458333333333337
vt 0.8958333333333334 0.36458333333333337
vn 0 0.21643961393810285 -0.9762960071199334
vn 1 0 0
vn 0 -0.21643961393810285 0.9762960071199334
vn -1 0 0
vn 0 0.9762960071199334 0.21643961393810285
vn 0 -0.9762960071199334 -0.21643961393810285
f 4/4/1 7/3/1 5/2/1 2/1/1
f 3/8/2 4/7/2 2/6/2 1/5/2
f 8/12/3 3/11/3 1/10/3 6/9/3
f 7/16/4 8/15/4 6/14/4 5/13/4
f 6/20/5 1/19/5 2/18/5 5/17/5
f 7/24/6 4/23/6 3/22/6 8/21/6

